<svg viewBox="0 0 400 400" xmlns="http://www.w3.org/2000/svg" xmlns:xlink="http://www.w3.org/1999/xlink">
  <defs>
    <!-- Gradients -->
    <linearGradient id="blueGradient" x1="0%" y1="0%" x2="100%" y2="100%">
      <stop offset="0%" style="stop-color:#1193b0;stop-opacity:1" />
      <stop offset="100%" style="stop-color:#0a7a94;stop-opacity:1" />
    </linearGradient>
    
    <linearGradient id="orangeGradient" x1="0%" y1="0%" x2="100%" y2="100%">
      <stop offset="0%" style="stop-color:#da7756;stop-opacity:1" />
      <stop offset="100%" style="stop-color:#b85d42;stop-opacity:1" />
    </linearGradient>
    
    <linearGradient id="darkGradient" x1="0%" y1="0%" x2="100%" y2="100%">
      <stop offset="0%" style="stop-color:#2a2a2a;stop-opacity:1" />
      <stop offset="100%" style="stop-color:#1a1a1a;stop-opacity:1" />
    </linearGradient>
    
    <linearGradient id="lightBlueGradient" x1="0%" y1="0%" x2="100%" y2="100%">
      <stop offset="0%" style="stop-color:#1193b0;stop-opacity:0.3" />
      <stop offset="100%" style="stop-color:#1193b0;stop-opacity:0.1" />
    </linearGradient>
    
    <!-- Glow effects -->
    <filter id="glow">
      <feGaussianBlur stdDeviation="3" result="coloredBlur"/>
      <feMerge> 
        <feMergeNode in="coloredBlur"/>
        <feMergeNode in="SourceGraphic"/>
      </feMerge>
    </filter>
    
    <!-- Animated pattern for background -->
    <pattern id="grid" width="20" height="20" patternUnits="userSpaceOnUse">
      <path d="M 20 0 L 0 0 0 20" fill="none" stroke="#1193b0" stroke-width="0.5" opacity="0.1"/>
    </pattern>
  </defs>
  
  <!-- Background -->
  <rect width="400" height="400" fill="#0f0f0f"/>
  <rect width="400" height="400" fill="url(#grid)"/>
  
  <!-- Server rack main body -->
  <g id="server-body">
    <!-- Server case -->
    <rect x="100" y="100" width="200" height="240" rx="10" fill="url(#darkGradient)" stroke="#1193b0" stroke-width="2" filter="url(#glow)"/>
    
    <!-- Server components -->
    <!-- Server module 1 -->
    <rect x="120" y="130" width="160" height="40" rx="5" fill="url(#blueGradient)" stroke="#0a7a94" stroke-width="1">
      <animate attributeName="fill-opacity" values="0.8;1;0.8" dur="2s" repeatCount="indefinite"/>
    </rect>
    <circle cx="140" cy="150" r="7" fill="#0f0f0f"/>
    <circle cx="140" cy="150" r="3" fill="#00ff00">
      <animate attributeName="fill" values="#00ff00;#33ff33;#00ff00" dur="1s" repeatCount="indefinite"/>
    </circle>
    <rect x="160" y="145" width="100" height="10" rx="2" fill="#0f0f0f"/>
    
    <!-- Server module 2 -->
    <rect x="120" y="180" width="160" height="40" rx="5" fill="url(#orangeGradient)" stroke="#b85d42" stroke-width="1"/>
    <circle cx="140" cy="200" r="7" fill="#0f0f0f"/>
    <circle cx="140" cy="200" r="3" fill="#00ff00">
      <animate attributeName="fill" values="#00ff00;#33ff33;#00ff00" dur="1.5s" repeatCount="indefinite"/>
    </circle>
    <rect x="160" y="195" width="100" height="10" rx="2" fill="#0f0f0f"/>
    
    <!-- Server module 3 -->
    <rect x="120" y="230" width="160" height="40" rx="5" fill="url(#blueGradient)" stroke="#0a7a94" stroke-width="1"/>
    <circle cx="140" cy="250" r="7" fill="#0f0f0f"/>
    <circle cx="140" cy="250" r="3" fill="#00ff00">
      <animate attributeName="fill" values="#00ff00;#33ff33;#00ff00" dur="0.8s" repeatCount="indefinite"/>
    </circle>
    <rect x="160" y="245" width="100" height="10" rx="2" fill="#0f0f0f"/>
    
    <!-- Server module 4 -->
    <rect x="120" y="280" width="160" height="40" rx="5" fill="url(#orangeGradient)" stroke="#b85d42" stroke-width="1">
      <animate attributeName="fill-opacity" values="0.8;1;0.8" dur="3s" repeatCount="indefinite"/>
    </rect>
    <circle cx="140" cy="300" r="7" fill="#0f0f0f"/>
    <circle cx="140" cy="300" r="3" fill="#00ff00">
      <animate attributeName="fill" values="#00ff00;#33ff33;#00ff00" dur="1.2s" repeatCount="indefinite"/>
    </circle>
    <rect x="160" y="295" width="100" height="10" rx="2" fill="#0f0f0f"/>
  </g>
    
  <!-- Data transfer animations -->
  <g id="data-packets">
    <!-- Data packet 1 -->
    <circle r="3" fill="#1193b0">
      <animate attributeName="cx" values="100;300;100" dur="5s" repeatCount="indefinite"/>
      <animate attributeName="cy" values="120;120;120" dur="5s" repeatCount="indefinite"/>
      <animate attributeName="opacity" values="0;1;0" dur="5s" repeatCount="indefinite"/>
    </circle>
    
    <!-- Data packet 2 -->
    <circle r="3" fill="#da7756">
      <animate attributeName="cx" values="300;100;300" dur="4s" repeatCount="indefinite"/>
      <animate attributeName="cy" values="170;170;170" dur="4s" repeatCount="indefinite"/>
      <animate attributeName="opacity" values="0;1;0" dur="4s" repeatCount="indefinite"/>
    </circle>
    
    <!-- Data packet 3 -->
    <circle r="3" fill="#1193b0">
      <animate attributeName="cx" values="100;300;100" dur="3s" repeatCount="indefinite"/>
      <animate attributeName="cy" values="220;220;220" dur="3s" repeatCount="indefinite"/>
      <animate attributeName="opacity" values="0;1;0" dur="3s" repeatCount="indefinite"/>
    </circle>
    
    <!-- Data packet 4 -->
    <circle r="3" fill="#da7756">
      <animate attributeName="cx" values="300;100;300" dur="6s" repeatCount="indefinite"/>
      <animate attributeName="cy" values="270;270;270" dur="6s" repeatCount="indefinite"/>
      <animate attributeName="opacity" values="0;1;0" dur="6s" repeatCount="indefinite"/>
    </circle>
  </g>
  
  <!-- Cloud connections -->
  <g id="cloud-connections">
    <path d="M 200 40 C 180 20, 150 20, 140 40 C 120 40, 110 70, 130 85 C 120 100, 140 120, 160 110 C 180 130, 210 120, 215 105 C 240 110, 250 85, 235 75 C 245 50, 220 20, 200 40" 
          fill="#1a1a1a" stroke="#1193b0" stroke-width="1.5" opacity="0.7"/>
    
    <!-- Cloud inner glow -->
    <path d="M 200 43 C 183 25, 155 25, 145 43 C 127 43, 119 70, 136 83 C 127 96, 145 114, 162 105 C 180 123, 207 114, 211 101 C 233 106, 242 83, 229 74 C 238 52, 216 25, 200 43" 
          fill="none" stroke="#1193b0" stroke-width="0.5" opacity="0.4">
      <animate attributeName="opacity" values="0.2;0.5;0.2" dur="3s" repeatCount="indefinite"/>
    </path>
  </g>
  
  <!-- Server face - happy emoji -->
  <g id="happy-face">    
    <!-- Eyes -->
    <ellipse cx="160" cy="70" rx="10" ry="15" stroke="#1193b0" stroke-width="0.5"/>
    <ellipse cx="210" cy="70" rx="10" ry="15" stroke="#1193b0" stroke-width="0.5"/>
    
    <!-- Eye highlights -->
    <circle cx="157" cy="65" r="3" fill="white"/>
    <circle cx="207" cy="65" r="3" fill="white"/>
    
    <!-- Smile -->
    <path d="M 160 90 Q 185 110 210 90" stroke="#1193b0" stroke-width="5" fill="none"/>
    
    <!-- Animated blink -->
    <!-- <rect id="leftEyelid" x="165" y="65" width="20" height="0" fill="#da7756" rx="5">
      <animate attributeName="height" values="0;30;0" dur="4s" begin="2s" repeatCount="indefinite"/>
    </rect>
    <rect id="rightEyelid" x="215" y="65" width="20" height="0" fill="#da7756" rx="5">
      <animate attributeName="height" values="0;30;0" dur="4s" begin="2s" repeatCount="indefinite"/>
    </rect> -->
  </g>
  <!-- Title -->
  <text x="200" y="365" fill="#1193b0" font-family="Arial, sans-serif" font-size="24" font-weight="bold" text-anchor="middle">HAPI Server</text>
  
  <!-- Subtitle with animation -->
  <text x="200" y="385" fill="#da7756" font-family="Arial, sans-serif" font-size="16" font-weight="bold" text-anchor="middle">
    The Happiness Stack
    <animate attributeName="opacity" values="0.7;1;0.7" dur="4s" repeatCount="indefinite"/>
  </text>
</svg>
